<svg viewBox="0 0 79.47500000000001 79.189010989011" style="max-height: 500px" xml:space="preserve" xmlns="http://www.w3.org/2000/svg" width="79.47500000000001" height="79.189010989011"><style>.st2{fill:url(#Layer_2-2_00000149367520327081924930000001198922095055972532_)}</style><g id="Layer_2_00000128455837806460388400000001643423247480997283_"><linearGradient gradientUnits="userSpaceOnUse" y2="39.475" y1="39.475" x2="289.05" x1="-.004" id="Layer_2-2_00000075877734438008263450000005979626710798498955_"><stop style="stop-color:#76e3c9" offset="0"/><stop style="stop-color:#5588e8" offset="1"/></linearGradient><path style="fill:url(#Layer_2-2_00000075877734438008263450000005979626710798498955_)" d="M15.8 78.9c-4.8 0-8.8-1.4-11.6-4.2-4.8-4.8-5.5-13-2.1-23.1 3.4-9.9 10.4-20.5 19.7-29.8 9.3-9.4 19.9-16.4 29.8-19.7C61.7-1.4 69.9-.6 74.7 4.2c4.8 4.8 5.5 13 2.1 23.1-3.4 9.9-10.4 20.5-19.7 29.8s-20 16.3-29.8 19.7c-4.2 1.4-8.1 2.2-11.5 2.1zM63.1 1.8c-3.2 0-6.9.7-10.9 2-9.6 3.3-19.9 10.2-29 19.4-9.2 9.1-16 19.4-19.3 29-3.2 9.4-2.6 16.9 1.6 21.2 4.3 4.3 11.8 4.8 21.2 1.6 9.6-3.3 19.9-10.1 29.1-19.3s16-19.5 19.3-29.1c3.2-9.4 2.6-16.9-1.6-21.2-2.5-2.4-6-3.6-10.4-3.6zm0 77.1c-3.4 0-7.3-.7-11.5-2.2-9.9-3.4-20.5-10.4-29.8-19.7-9.3-9.3-16.3-19.9-19.6-29.7C-1.3 17.2-.6 9 4.2 4.2 9-.6 17.2-1.3 27.3 2.1c9.9 3.4 20.5 10.4 29.8 19.7 9.3 9.3 16.3 19.9 19.7 29.8 3.4 10.1 2.7 18.3-2.1 23.1-2.8 2.8-6.7 4.2-11.6 4.2zM15.8 1.8C11.5 1.8 8 3 5.5 5.5 1.2 9.8.6 17.3 3.9 26.7 7.2 36.3 14 46.6 23.2 55.8s19.5 16 29.1 19.3c9.4 3.2 16.9 2.6 21.2-1.6 4.3-4.3 4.8-11.8 1.6-21.2-3.3-9.6-10.1-19.9-19.3-29.1-9.2-9.2-19.5-16-29.1-19.3-4-1.4-7.7-2.1-10.9-2.1zm23.5 18.4s-.1 16.5-18.8 19.2v.2s16.5.1 19.2 18.8v.2s.1-16.5 18.8-19.2v-.2S42 39.1 39.3 20.4v-.2zm74.4 27h15.8v7.9h-24.7V18.2h8.9v29zm36.6 1h-.7c-1.5 4.6-4.6 7.6-9.5 7.6s-8.6-2.5-8.6-8.2c0-5.2 3.1-8.9 10.8-8.9h7.6v-2c0-3-1.3-4.7-4.5-4.7-2.8 0-4.4 1.4-4.9 4.2l-7.9-1.8c1-5.3 5-9 13.1-9 8.9 0 12.5 4.1 12.5 11.4v18.5h-7.9v-7.1zm-.4-4.3v-1.2h-6c-2.7 0-4.4 1.2-4.4 3.3 0 1.8 1.1 3.3 4.2 3.3 3.7 0 6.1-2.3 6.2-5.4zM160.2 65l1.2-7.1c1.2.2 2.5.4 3.8.4 2.9 0 4.5-.5 5.8-3.6L160.1 26h9.2l2.9 10.7c.9 3.3 1.9 7 2.8 10.6h1.1c.9-3.6 1.9-7.3 2.6-10.4l2.7-10.9h9l-11.5 29.3c-2.8 7.1-6.5 10.2-13.8 10.2-2.1-.1-3.3-.2-4.9-.5zm30.4-23.8c0-10.1 5.5-16 14.9-16 9 0 13.2 5.3 13.2 13.4 0 1.2-.1 2.4-.2 3.9h-19.7c.5 4.7 2.6 6.8 6.6 6.8s5.2-1.8 5.9-4.1l7 1.9c-1.3 5-4.7 8.9-13 8.9-8.7-.1-14.7-4.9-14.7-14.8zm8.3-3h12.2c-.1-4.5-2-6.8-5.8-6.8s-6 2-6.4 6.8zm23.8 16.9V26h7.9v9.5h.7c1.9-8.1 4.3-9.8 8.1-9.8h.9v9.6h-1.7c-5.8 0-7.5 1.7-7.5 6.9v13l-8.4-.1zm43.5-8.2h-14.3l-2.5 8.2h-9.2l12.9-36.9h12.2l12.9 36.9h-9.5l-2.5-8.2zm-12.3-6.4h10.2l-1.4-4.5c-1-3.3-2-6.8-2.9-10.1h-1.5c-.9 3.3-2 6.8-3 10.1l-1.4 4.5zm26.3 14.6V18.2h8.9v36.9h-8.9z" id="Layer_2-2"/></g></svg>