<?xml version="1.0" encoding="UTF-8"?>
<svg xmlns="http://www.w3.org/2000/svg" xmlns:xlink="http://www.w3.org/1999/xlink" width="88px" height="24px" viewBox="0 0 87 24" version="1.1">
<defs>
<linearGradient id="linear0" gradientUnits="userSpaceOnUse" x1="-0.004" y1="39.474998" x2="289.049988" y2="39.474998" gradientTransform="matrix(0.301038,0,0,0.303797,0,0.0151896)">
<stop offset="0" style="stop-color:rgb(46.27451%,89.019608%,78.823529%);stop-opacity:1;"/>
<stop offset="1" style="stop-color:rgb(33.333333%,53.333333%,90.980392%);stop-opacity:1;"/>
</linearGradient>
</defs>
<g id="surface1">
<path style=" stroke:none;fill-rule:nonzero;fill:url(#linear0);" d="M 4.757812 23.984375 C 3.3125 23.984375 2.105469 23.558594 1.265625 22.707031 C -0.179688 21.25 -0.390625 18.757812 0.632812 15.691406 C 1.65625 12.683594 3.761719 9.464844 6.5625 6.636719 C 9.363281 3.78125 12.554688 1.65625 15.535156 0.652344 C 18.574219 -0.410156 21.042969 -0.167969 22.488281 1.292969 C 23.933594 2.75 24.144531 5.242188 23.121094 8.308594 C 22.097656 11.316406 19.988281 14.535156 17.1875 17.363281 C 14.390625 20.1875 11.167969 22.3125 8.21875 23.347656 C 6.953125 23.773438 5.78125 24.015625 4.757812 23.984375 Z M 18.996094 0.5625 C 18.03125 0.5625 16.917969 0.773438 15.714844 1.167969 C 12.824219 2.171875 9.722656 4.269531 6.984375 7.0625 C 4.214844 9.828125 2.167969 12.957031 1.175781 15.875 C 0.210938 18.730469 0.390625 21.007812 1.65625 22.3125 C 2.949219 23.621094 5.207031 23.773438 8.039062 22.800781 C 10.925781 21.796875 14.027344 19.730469 16.796875 16.9375 C 19.566406 14.140625 21.613281 11.011719 22.609375 8.097656 C 23.570312 5.242188 23.390625 2.960938 22.125 1.65625 C 21.375 0.925781 20.320312 0.5625 18.996094 0.5625 Z M 18.996094 23.984375 C 17.972656 23.984375 16.796875 23.773438 15.535156 23.316406 C 12.554688 22.285156 9.363281 20.15625 6.5625 17.332031 C 3.761719 14.507812 1.65625 11.285156 0.664062 8.308594 C -0.390625 5.242188 -0.179688 2.75 1.265625 1.292969 C 2.710938 -0.167969 5.179688 -0.378906 8.21875 0.652344 C 11.199219 1.6875 14.390625 3.8125 17.1875 6.636719 C 19.988281 9.464844 22.097656 12.683594 23.121094 15.691406 C 24.144531 18.757812 23.933594 21.25 22.488281 22.707031 C 21.644531 23.558594 20.46875 23.984375 18.996094 23.984375 Z M 4.757812 0.5625 C 3.460938 0.5625 2.410156 0.925781 1.65625 1.6875 C 0.359375 2.992188 0.179688 5.269531 1.175781 8.125 C 2.167969 11.042969 4.214844 14.171875 6.984375 16.96875 C 9.753906 19.761719 12.855469 21.828125 15.746094 22.832031 C 18.574219 23.800781 20.832031 23.621094 22.125 22.34375 C 23.421875 21.039062 23.570312 18.757812 22.609375 15.902344 C 21.613281 12.988281 19.566406 9.859375 16.796875 7.0625 C 14.027344 4.269531 10.925781 2.203125 8.039062 1.199219 C 6.832031 0.773438 5.71875 0.5625 4.757812 0.5625 Z M 11.832031 6.152344 C 11.832031 6.152344 11.800781 11.164062 6.171875 11.984375 L 6.171875 12.046875 C 6.171875 12.046875 11.136719 12.074219 11.953125 17.757812 L 11.953125 17.816406 C 11.953125 17.816406 11.980469 12.804688 17.609375 11.984375 L 17.609375 11.925781 C 17.609375 11.925781 12.644531 11.894531 11.832031 6.210938 Z M 34.226562 14.355469 L 38.984375 14.355469 L 38.984375 16.753906 L 31.546875 16.753906 L 31.546875 5.542969 L 34.226562 5.542969 Z M 45.246094 14.660156 L 45.035156 14.660156 C 44.582031 16.054688 43.652344 16.96875 42.175781 16.96875 C 40.699219 16.96875 39.585938 16.207031 39.585938 14.476562 C 39.585938 12.894531 40.519531 11.773438 42.835938 11.773438 L 45.125 11.773438 L 45.125 11.164062 C 45.125 10.253906 44.734375 9.738281 43.769531 9.738281 C 42.929688 9.738281 42.445312 10.160156 42.296875 11.011719 L 39.917969 10.464844 C 40.21875 8.855469 41.421875 7.730469 43.859375 7.730469 C 46.539062 7.730469 47.625 8.976562 47.625 11.195312 L 47.625 16.816406 L 45.246094 16.816406 Z M 45.125 13.351562 L 45.125 12.988281 L 43.320312 12.988281 C 42.507812 12.988281 41.996094 13.351562 41.996094 13.988281 C 41.996094 14.535156 42.324219 14.992188 43.257812 14.992188 C 44.371094 14.992188 45.09375 14.292969 45.125 13.351562 Z M 48.226562 19.761719 L 48.585938 17.605469 C 48.949219 17.664062 49.339844 17.726562 49.730469 17.726562 C 50.605469 17.726562 51.085938 17.574219 51.476562 16.632812 L 48.195312 7.914062 L 50.964844 7.914062 L 51.839844 11.164062 C 52.109375 12.167969 52.410156 13.292969 52.683594 14.386719 L 53.011719 14.386719 C 53.285156 13.292969 53.585938 12.167969 53.796875 11.226562 L 54.609375 7.914062 L 57.316406 7.914062 L 53.855469 16.816406 C 53.011719 18.972656 51.898438 19.914062 49.703125 19.914062 C 49.070312 19.882812 48.707031 19.851562 48.226562 19.761719 Z M 57.378906 12.53125 C 57.378906 9.464844 59.035156 7.671875 61.863281 7.671875 C 64.574219 7.671875 65.835938 9.28125 65.835938 11.742188 C 65.835938 12.105469 65.808594 12.472656 65.777344 12.925781 L 59.847656 12.925781 C 59.996094 14.355469 60.628906 14.992188 61.832031 14.992188 C 63.039062 14.992188 63.398438 14.445312 63.609375 13.746094 L 65.714844 14.324219 C 65.324219 15.84375 64.300781 17.027344 61.804688 17.027344 C 59.183594 16.996094 57.378906 15.539062 57.378906 12.53125 Z M 59.875 11.621094 L 63.550781 11.621094 C 63.519531 10.253906 62.945312 9.554688 61.804688 9.554688 C 60.660156 9.554688 59.996094 10.160156 59.875 11.621094 Z M 67.042969 16.753906 L 67.042969 7.914062 L 69.417969 7.914062 L 69.417969 10.800781 L 69.628906 10.800781 C 70.203125 8.339844 70.925781 7.824219 72.070312 7.824219 L 72.339844 7.824219 L 72.339844 10.738281 L 71.828125 10.738281 C 70.082031 10.738281 69.570312 11.253906 69.570312 12.835938 L 69.570312 16.785156 Z M 80.136719 14.261719 L 75.832031 14.261719 L 75.078125 16.753906 L 72.308594 16.753906 L 76.191406 5.542969 L 79.867188 5.542969 L 83.75 16.753906 L 80.890625 16.753906 Z M 76.433594 12.320312 L 79.503906 12.320312 L 79.082031 10.953125 C 78.78125 9.949219 78.480469 8.886719 78.210938 7.882812 L 77.757812 7.882812 C 77.488281 8.886719 77.15625 9.949219 76.855469 10.953125 Z M 84.351562 16.753906 L 84.351562 5.542969 L 87.03125 5.542969 L 87.03125 16.753906 Z M 84.351562 16.753906 "/>
</g>
</svg>
